<svg width="167" height="102" viewBox="0 0 167 102" fill="none" xmlns="http://www.w3.org/2000/svg">
<path d="M12.992 25.528C16.128 25.528 17.984 27.736 18.272 30.456H22.88C22.464 24.952 18.336 22.136 12.992 22.136C6.176 22.136 1.792 26.968 1.792 35C1.792 43.032 5.856 47.48 13.024 47.48C18.848 47.48 22.56 43.96 22.88 38.936H18.336C18.048 41.88 16.352 44.12 12.96 44.12C8.96 44.12 6.592 40.728 6.592 34.872C6.592 28.952 9.088 25.528 12.992 25.528ZM26.839 47H31.127V38.264C31.127 34.968 32.983 33.688 36.023 33.688H36.823V29.656H36.535C34.167 29.656 31.863 31.096 30.967 33.4H30.903V29.944H26.839V47ZM50.2718 36.824H43.0398C43.3278 34.04 44.5438 32.344 46.7517 32.344C49.1198 32.344 50.1118 34.072 50.2718 36.632V36.824ZM54.4638 42.2H50.2398C49.9518 43.224 49.2798 44.44 46.9758 44.44C44.4478 44.44 43.1998 42.744 43.0078 39.512H54.6558V38.136C54.6558 33.368 52.3838 29.528 46.7838 29.528C41.6318 29.528 38.6558 33.304 38.6558 38.488C38.6558 43.832 41.4398 47.416 46.8158 47.416C51.1998 47.416 53.9198 45.464 54.4638 42.2ZM63.904 44.344C62.336 44.344 61.408 43.448 61.408 42.04C61.408 41.24 61.664 40.6 62.272 40.184C63.168 39.544 64.768 39.288 67.776 39.128V39.608C67.776 42.936 65.792 44.344 63.904 44.344ZM62.016 34.872C62.08 33.528 62.912 32.408 64.896 32.408C66.848 32.408 67.744 33.464 67.744 35.768V36.632C64.064 36.792 61.472 37.016 59.68 37.944C57.952 38.84 57.12 40.28 57.12 42.232C57.12 45.368 59.264 47.224 62.752 47.224C65.216 47.224 67.008 46.232 68 44.472H68.096C68.544 46.424 69.632 47.064 72.16 47.064H73.376V43.96C72.256 43.96 71.936 43.544 71.936 42.456V36.184C71.936 31.64 69.984 29.56 64.928 29.56C60.608 29.56 58.016 31.608 57.888 34.872H62.016ZM78.1838 25.112V26.36C78.1838 29.528 77.7678 30.008 75.5598 30.008H74.9838V33.016H77.7358V42.2C77.7358 45.752 79.5278 47.256 82.8878 47.256C84.3278 47.256 85.5758 47.096 85.9918 47.032V43.8C85.9918 43.8 85.1278 43.928 84.3918 43.928C82.6638 43.928 81.9918 43.192 81.9918 41.432V33.016H85.8958V29.944H81.9278V25.112H78.1838ZM89.4633 26.68H93.8473V22.616H89.4633V26.68ZM89.4953 47H93.8153V29.944H89.4953V47ZM105.913 47.416C110.905 47.416 114.201 43.96 114.201 38.456C114.201 32.952 111.097 29.528 105.945 29.528C100.793 29.528 97.6245 32.984 97.6245 38.456C97.6245 43.96 100.633 47.416 105.913 47.416ZM105.913 32.504C108.697 32.504 109.753 34.904 109.753 38.456C109.753 41.976 108.729 44.408 105.945 44.408C103.193 44.408 102.073 42.072 102.073 38.456C102.073 34.968 103.193 32.504 105.913 32.504ZM129.067 47H133.387V35.64C133.387 31.512 131.531 29.56 127.723 29.56C124.875 29.56 123.083 31.064 122.187 32.792H122.123V29.944H117.995V47H122.315V37.016C122.315 34.424 123.595 32.792 126.155 32.792C127.179 32.792 128.011 33.112 128.523 33.816C129.035 34.52 129.067 35.64 129.067 36.856V47Z" fill="white"/>
<path d="M15.2812 73L14.1562 68.9688H7.03125L5.875 73H2.0625L8.10938 52.5781H13.4844L19.5312 73H15.2812ZM10.6406 56.3281L7.95312 65.8281H13.2969L10.6406 56.3281ZM33.2644 63.2969C33.2852 62.7031 33.254 62.1979 33.1706 61.7812C33.0977 61.3646 32.9727 61.0208 32.7956 60.75C32.629 60.4792 32.4206 60.2812 32.1706 60.1562C31.9206 60.0312 31.6342 59.9688 31.3113 59.9688C30.7488 59.9688 30.1654 60.2031 29.5613 60.6719C28.9675 61.1302 28.3113 61.8906 27.5925 62.9531V73H23.6863V57.125H27.1394L27.28 59.4375C27.5404 59.0312 27.8321 58.6667 28.155 58.3438C28.4883 58.0208 28.8529 57.7448 29.2488 57.5156C29.655 57.276 30.1029 57.0938 30.5925 56.9688C31.0821 56.8438 31.6185 56.7812 32.2019 56.7812C33.004 56.7812 33.7123 56.9219 34.3269 57.2031C34.9519 57.474 35.4727 57.8802 35.8894 58.4219C36.3165 58.9635 36.629 59.6458 36.8269 60.4688C37.0352 61.2812 37.1238 62.224 37.0925 63.2969H33.2644ZM54.7631 72.3906C54.0131 72.6927 53.2371 72.9167 52.435 73.0625C51.6329 73.2083 50.7944 73.2812 49.9194 73.2812C48.659 73.2812 47.5288 73.1094 46.5288 72.7656C45.5288 72.4219 44.6798 71.9115 43.9819 71.2344C43.284 70.5573 42.7475 69.7188 42.3725 68.7188C42.0079 67.7188 41.8256 66.5625 41.8256 65.25C41.8256 63.9792 42.0235 62.8281 42.4194 61.7969C42.8256 60.7656 43.3933 59.8854 44.1225 59.1562C44.8517 58.4271 45.7267 57.8646 46.7475 57.4688C47.7788 57.0729 48.9246 56.875 50.185 56.875C51.2163 56.875 52.0808 56.9323 52.7788 57.0469C53.4871 57.151 54.1225 57.2865 54.685 57.4531V61.1562C54.0392 60.8333 53.336 60.5833 52.5756 60.4062C51.8256 60.2292 51.1121 60.1406 50.435 60.1406C49.7267 60.1406 49.0913 60.2604 48.5288 60.5C47.9663 60.7396 47.4923 61.0729 47.1069 61.5C46.7215 61.9271 46.4246 62.4479 46.2163 63.0625C46.0183 63.6667 45.9194 64.3333 45.9194 65.0625C45.9194 65.8229 46.0288 66.5052 46.2475 67.1094C46.4663 67.7135 46.7735 68.2292 47.1694 68.6562C47.5756 69.0729 48.06 69.3958 48.6225 69.625C49.185 69.8438 49.81 69.9531 50.4975 69.9531C50.8308 69.9531 51.1798 69.9323 51.5444 69.8906C51.9194 69.8385 52.2892 69.7708 52.6538 69.6875C53.0288 69.5938 53.3933 69.4896 53.7475 69.375C54.1121 69.2604 54.4506 69.1354 54.7631 69V72.3906ZM70.2619 73V62.6562C70.2619 60.9167 69.616 60.0469 68.3244 60.0469C67.6785 60.0469 67.0588 60.3073 66.465 60.8281C65.8817 61.349 65.2619 62.0573 64.6056 62.9531V73H60.7931V50.9219H64.6056V56.3594L64.4181 59.2344C64.741 58.849 65.0692 58.5052 65.4025 58.2031C65.7358 57.8906 66.0952 57.6302 66.4806 57.4219C66.866 57.2135 67.2827 57.0573 67.7306 56.9531C68.1785 56.8385 68.6733 56.7812 69.215 56.7812C70.0275 56.7812 70.7358 56.9167 71.34 57.1875C71.9442 57.4479 72.4494 57.8229 72.8556 58.3125C73.2619 58.7917 73.564 59.375 73.7619 60.0625C73.9702 60.7396 74.0744 61.5 74.0744 62.3438V73H70.2619ZM89.0106 52.7812C89.0106 53.125 88.9481 53.4479 88.8231 53.75C88.6981 54.0521 88.521 54.3177 88.2919 54.5469C88.0731 54.7656 87.8127 54.9427 87.5106 55.0781C87.2085 55.2031 86.8804 55.2656 86.5263 55.2656C86.1721 55.2656 85.8388 55.2031 85.5263 55.0781C85.2242 54.9427 84.9585 54.7656 84.7294 54.5469C84.5106 54.3177 84.3388 54.0521 84.2138 53.75C84.0888 53.4479 84.0263 53.125 84.0263 52.7812C84.0263 52.4375 84.0888 52.1146 84.2138 51.8125C84.3388 51.5104 84.5106 51.2448 84.7294 51.0156C84.9585 50.7865 85.2242 50.6094 85.5263 50.4844C85.8388 50.349 86.1721 50.2812 86.5263 50.2812C86.8804 50.2812 87.2085 50.349 87.5106 50.4844C87.8127 50.6094 88.0731 50.7865 88.2919 51.0156C88.521 51.2448 88.6981 51.5104 88.8231 51.8125C88.9481 52.1146 89.0106 52.4375 89.0106 52.7812ZM84.7919 60.0938H80.3075V57.125H88.6981V70.0312H93.2763V73H79.7606V70.0312H84.7919V60.0938ZM107.416 73H103.025L96.7281 57.125H100.978L104.275 66.125L105.259 69.0312L106.228 66.25L109.556 57.125H113.65L107.416 73ZM131.243 63.8438C131.243 64.1042 131.232 64.4427 131.211 64.8594C131.201 65.276 131.18 65.6667 131.149 66.0312H120.711C120.711 66.7292 120.815 67.3438 121.024 67.875C121.243 68.4062 121.545 68.8542 121.93 69.2188C122.326 69.5729 122.795 69.8438 123.336 70.0312C123.888 70.2188 124.498 70.3125 125.164 70.3125C125.935 70.3125 126.758 70.2552 127.633 70.1406C128.519 70.0156 129.435 69.8177 130.383 69.5469V72.5781C129.977 72.6927 129.534 72.7969 129.055 72.8906C128.576 72.9844 128.086 73.0677 127.586 73.1406C127.086 73.2135 126.581 73.2656 126.071 73.2969C125.56 73.3385 125.065 73.3594 124.586 73.3594C123.378 73.3594 122.295 73.1875 121.336 72.8438C120.378 72.5 119.565 71.9948 118.899 71.3281C118.232 70.651 117.722 69.8177 117.368 68.8281C117.013 67.8385 116.836 66.6927 116.836 65.3906C116.836 64.099 117.013 62.9271 117.368 61.875C117.722 60.8125 118.222 59.9062 118.868 59.1562C119.513 58.3958 120.295 57.8125 121.211 57.4062C122.138 56.9896 123.17 56.7812 124.305 56.7812C125.43 56.7812 126.425 56.9583 127.289 57.3125C128.154 57.6562 128.878 58.1406 129.461 58.7656C130.045 59.3906 130.487 60.1354 130.789 61C131.091 61.8646 131.243 62.8125 131.243 63.8438ZM127.368 63.2969C127.378 62.6719 127.3 62.1302 127.133 61.6719C126.966 61.2031 126.737 60.8177 126.446 60.5156C126.164 60.2135 125.831 59.9896 125.446 59.8438C125.071 59.6979 124.664 59.625 124.227 59.625C123.269 59.625 122.482 59.9479 121.868 60.5938C121.253 61.2292 120.888 62.1302 120.774 63.2969H127.368Z" fill="white"/>
<path d="M125.196 101.002L72.417 71.0759V35.9453M125.196 101.002L161.536 79.5333V41.8004M125.196 101.002V62.8354" stroke="#E2DBC9" stroke-opacity="0.35"/>
<path d="M151.876 54.7773L135.856 63.988V72.5131L151.876 63.1373V54.7773Z" stroke="#E2DBC9" stroke-opacity="0.35"/>
<path d="M122.858 63.9332L68.3467 33.4869V25.7086M122.858 63.9332L165.607 39.7095V32.1535M122.858 63.9332V56.3772M165.607 32.1535L122.858 56.3772M165.607 32.1535L111.256 1L68.3467 25.7086M122.858 56.3772L68.3467 25.7086" stroke="#E2DBC9" stroke-opacity="0.35"/>
</svg>
